<?xml version="1.0" encoding="UTF-8" standalone="no"?>
<svg
   xmlns:dc="http://purl.org/dc/elements/1.1/"
   xmlns:cc="http://creativecommons.org/ns#"
   xmlns:rdf="http://www.w3.org/1999/02/22-rdf-syntax-ns#"
   xmlns:svg="http://www.w3.org/2000/svg"
   xmlns="http://www.w3.org/2000/svg"
   xmlns:sodipodi="http://sodipodi.sourceforge.net/DTD/sodipodi-0.dtd"
   xmlns:inkscape="http://www.inkscape.org/namespaces/inkscape"
   version="1.1"
   id="svg2"
   xml:space="preserve"
   width="426.66666"
   height="426.66666"
   viewBox="0 0 426.66666 426.66666"
   sodipodi:docname="sun_010.eps"><metadata
     id="metadata8"><rdf:RDF><cc:Work
         rdf:about=""><dc:format>image/svg+xml</dc:format><dc:type
           rdf:resource="http://purl.org/dc/dcmitype/StillImage" /></cc:Work></rdf:RDF></metadata><defs
     id="defs6" /><sodipodi:namedview
     pagecolor="#ffffff"
     bordercolor="#666666"
     borderopacity="1"
     objecttolerance="10"
     gridtolerance="10"
     guidetolerance="10"
     inkscape:pageopacity="0"
     inkscape:pageshadow="2"
     inkscape:window-width="640"
     inkscape:window-height="480"
     id="namedview4" /><g
     id="g10"
     inkscape:groupmode="layer"
     inkscape:label="ink_ext_XXXXXX"
     transform="matrix(1.3333333,0,0,-1.3333333,0,426.66667)"><g
       id="g12"
       transform="scale(0.1)"><path
         d="m 1918,1164.86 c 30.72,46.57 56.47,87.89 72.45,141.23 15.84,52.9 12.84,106.46 12.78,160.96 -0.04,52.84 0.06,105.7 0.06,158.57 0,50.82 -9.98,85.29 -27.72,132.45 -27.69,73.35 -60.62,151.54 -97.29,220.9 -36.22,68.53 -96.46,108.12 -164.43,147.43 -78.17,45.15 -178.95,63.69 -270.04,67.19 -56.41,2.14 -100.17,-11.07 -140.88,-49.67 -23.72,-22.47 -35.16,-47.1 -29.68,-78.97 6.87,-39.83 69.73,-38.27 105.34,-39.97 57.36,-2.76 113.36,4.51 169.6,-9.96 30.47,-7.87 85.32,-12.44 106.69,-35.4 10.32,-11.07 16.31,-30.3 25.69,-42.76 14.62,-19.46 26.88,-35.32 38.13,-56.3 21.3,-39.82 39,-84.43 63.53,-122.42 49.13,-76.09 68.38,-160.05 68.38,-250.15 0,-44.96 1.64,-90.12 0,-135.03 -1.85,-50.15 -34.7,-98.27 -67.5,-136.11 -42.22,-48.71 -119.61,-66.35 -182.32,-75.01 -94.63,-13.17 -199.03,-4.85 -288.27,28.29 -69.53,25.77 -130.29,107.05 -166.1,167.87 -9.93,16.84 -11.65,33.56 -14.53,52.53 -5.26,34.8 -18.25,68.21 -21.46,103.27 -4.78,51.84 -3.98,104.58 18.45,152.43 24.18,51.58 63.77,129.97 124.85,148.28 40.67,12.15 65.9,1.91 97.55,-21.15 35.85,-26.06 57.68,-59.29 103.49,-65.68 51.54,-7.17 107.93,-2.97 127.48,49.43 8.92,23.91 17.11,62.43 2.47,85.18 -17.51,27.19 -49,38.46 -72.57,55.38 l -77.4,12.63 c -33.28,28.21 -122.66,22.68 -162.96,18.72 -98.29,-9.57 -206.96,-60.21 -270.06,-133.21 -25.089,-29.03 -46.812,-57.26 -62.609,-91.49 -23.453,-50.92 -51.672,-100.85 -67.922,-154.08 -5.422,-17.72 -9.515,-35.84 -11.656,-54.46 -34.77,-164.51 40.734,-346.98 204.487,-424.82 23.58,-10.36 47.97,-19.79 72.57,-27.98 87.86,-29.37 185.68,-47.75 277.88,-59.46 92.69,-11.79 172.03,4.01 260.69,28.58 98.39,27.26 185.83,46.32 242.83,132.76 z M 539.094,2485.21 c 17.308,-22.77 33.793,-46.54 52.832,-69.6 19.054,-23.09 39.351,-47.66 64.453,-70.57 27.055,-28.83 58.969,-56.06 93.059,-83.48 18.261,-13.8 37.718,-27.47 57.746,-41.47 20.437,-14.38 40.609,-29.44 59.882,-45.26 17.668,-15.16 36.579,-36.2 54.59,-57.38 17.985,-21.28 34.574,-42.86 50.199,-57.22 28.965,-27.46 50.735,-29.17 67.635,-16.87 18.1,13.42 30.4,39.52 37.94,66 l -27.26,45.56 c -7.16,28.25 -42.27,69.31 -58.846,96.29 -17.406,28.35 -37.011,54.68 -57.929,81.29 -28.555,36.31 -54.711,74.2 -83.075,109.03 -17.465,21.48 -30.179,44.11 -41.433,67.33 -11.266,23.26 -21.145,47.27 -32.84,71.12 -8.551,17.44 -18.797,38.69 -30.688,61.07 -11.886,22.31 -26,46.04 -41.941,68.24 -16.402,22.31 -34.297,43.01 -53.34,58.75 -18.73,15.44 -37.832,24.8 -56.719,24.52 -24.629,-2.11 -58.457,-41.39 -80.964,-89.35 -23.836,-44.46 -46.305,-91.75 -47.942,-127.48 -1.23,-14.64 12.637,-37.19 19.106,-46.78 14.254,-17.33 40.89,-21.11 55.535,-43.74 z m 994.956,-168.93 c 14.97,-20.46 52.57,-21.83 72.59,-8.64 27.06,16.46 40.26,68.68 52.27,105.95 8.07,23.87 17.37,47.86 27.61,71.62 10.36,23.74 20.82,47.46 31.4,70.78 13.62,31.84 27.45,62.88 40.39,94.07 12.92,31.23 25.57,62.44 35.32,94.89 13.94,46.32 20.23,89.77 21.66,139.94 1.1,36.63 15.84,99.43 1.5,132.33 -9.9,21.82 -33.76,32.34 -60.73,36.65 -26.97,4.28 -56.9,2.42 -78.76,-0.41 -50.42,-6.53 -84.1,-42.9 -107.19,-87.51 -22.22,-44.3 -31.9,-96.73 -36.29,-136.11 -2.65,-33.04 -3.84,-66.92 -4.28,-101.11 -1.16,-34.33 -2.76,-68.96 -3.79,-104.01 -4.08,-47.76 -11.32,-95.58 -14.18,-144.07 -3.45,-48.13 -2.53,-95.92 1.4,-143.23 z m -648.601,704.38 c 8.75,-33.43 21.031,-67.76 38.535,-105.57 11.184,-24.12 20.7,-49.29 29.641,-74.84 8.938,-25.48 17.242,-51.37 25.367,-77.41 8.16,-26.08 16.258,-52.21 26.168,-78.38 9.9,-26.14 21.18,-52.16 34.34,-77.74 20.31,-39.46 40.06,-78.32 60.05,-116.41 17.91,-37.92 34.71,-74.88 51.63,-110.99 14.52,-32.85 24.74,-57.27 50.31,-74.42 16.8,-10.56 61.45,-27.52 70.24,0.35 l 5.52,102.76 c -3.22,44.42 -10.86,88.79 -16.6,134.05 -6.49,46.25 -14.01,93.8 -14.69,143.45 -0.6,46.06 -1.73,92.98 -2.75,139.09 -1.87,86.51 -0.39,167.65 -14.26,232.41 -9.66,45.16 -13.7,89.57 -63.28,109.3 -51.21,19.89 -169.768,34.53 -231.982,33.65 -67.743,-4.2 -66.016,-37.54 -63.469,-81.26 1.824,-32.52 6.496,-64.66 15.23,-98.04 z M 136.063,1983.63 c 26.746,-5.1 57.937,-14.77 94.078,-28.25 36.183,-13.47 75.937,-29.63 116.535,-46.29 39.219,-14.59 76.101,-27.39 110.84,-36.38 34.668,-8.94 68.129,-15.68 100.136,-21.38 31.133,-6.08 59.735,-12.03 85.203,-17.77 46.114,-10.75 89.161,-21.78 136.797,-23.18 20.082,-0.62 94.578,-10.12 77.438,31.1 -4.242,10.19 -16.168,9.26 -24.086,15.25 -18.75,14.11 -48.984,30.08 -68.102,48.44 -8.304,5.53 -16.562,11.13 -24.875,17.13 -8.339,5.95 -16.765,12.27 -25.132,19.03 -13.633,10.76 -27.832,21.53 -42.688,32.32 -20.336,13.17 -41.547,26.12 -63.594,39.04 -22.043,12.92 -44.906,25.76 -68.691,38.79 -26.27,14.42 -53.594,29.25 -81.969,44.69 -28.441,15.47 -58.402,31.86 -88.484,48.5 -48.879,28.14 -96.817,59.88 -137.422,76.45 -35.215,13.74 -67.871,15.84 -104.387,-3.42 -24.347,-12.84 -57.9295,-41.23 -84.7108,-72.58 -26.7929,-31.35 -45.32029,-65.92 -42.6992,-86.66 7.07422,-32.21 58.875,-44.06 95.6719,-59.7 12.3911,-5.81 26.0471,-10.84 40.1411,-15.13 z m 1731.477,193.18 c 11.68,-3.51 26.66,-0.1 45.93,12.55 0,0 15.44,21.03 32.44,41.48 16.94,20.5 36.43,40.04 36.43,40.04 8.92,10.49 18.55,21.63 28.79,33.18 10.9,11.47 22.48,23.42 34.59,35.51 12.76,12.27 25.97,24.98 39.45,37.96 13.56,13.04 27.15,26.4 40.33,39.89 16.88,16.9 34.23,34.53 52.07,52.91 17.87,19.2 36.55,38.9 56.07,59.15 19.56,20.23 39.63,40.75 59.61,61.28 49.9,51.28 98.34,100.81 140.75,148.28 36.37,42.9 62.68,81.19 75.96,114.84 12.47,40.78 -14.19,90.72 -72.33,134.82 -59.09,44.95 -104.17,36.76 -145.92,8.2 -28.69,-23.67 -57.59,-55.4 -87.23,-91.82 -15.44,-19.1 -30.73,-38.87 -45.78,-58.85 -15.22,-20.33 -29.98,-40.92 -44.27,-61.41 -12.87,-18.49 -26.01,-37.3 -39.08,-56.4 -13.04,-19.13 -26,-38.37 -38.69,-57.72 -12.6,-19.26 -25.1,-38.54 -37.18,-57.77 -12.12,-19.26 -23.79,-38.56 -35.07,-57.97 -11.18,-19.06 -22.11,-37.98 -32.59,-56.39 -10.43,-18.37 -20.28,-36.03 -29.21,-53.18 -9.02,-18.03 -19.04,-39.44 -28.29,-62 -8.68,-21.86 -16.88,-44.8 -23.44,-66.71 -6.29,-21.88 -11,-43.02 -12.74,-62.13 -1.73,-19.05 -0.58,-36.4 4.34,-50.24 4.96,-13.83 13.18,-23.84 25.06,-27.5 z m 546.86,93.57 c -27.59,-17.15 -55.81,-35.71 -83.92,-53.88 -28.1,-18.37 -55.83,-36.03 -81.87,-52.91 -34.65,-21.61 -66.1,-41.97 -92.22,-59.84 -15.63,-11.44 -34.16,-25.99 -51.83,-41.7 -17.66,-15.88 -34.45,-33.38 -46.77,-50.63 -23.75,-36.4 -29.01,-72.95 11.69,-89.31 24.18,-6.46 49.54,-7.58 76.25,-4.17 26.84,4.13 55.11,12.57 84.77,23.95 29.78,11.4 60.81,25.03 92.7,39.16 31.97,13.88 64.63,27.61 97.43,40.08 17.08,6.52 34.04,12.77 50.83,18.75 18.43,5.87 36.6,11.58 54.22,16.59 35.19,10.05 68.75,18.76 100.43,27.34 14.57,4.9 27.53,10.37 38.45,16.7 21.83,12.56 35.87,29.86 39.08,54.82 -0.67,7.27 -1.76,14.76 -3.14,22.44 -4.26,23.13 -10.31,46.62 -13.79,64.83 -5.53,29.1 -13.66,54.21 -30.65,70.74 -16.97,16.46 -42.85,23.84 -85.06,18.25 -23.6,-3.08 -49.14,-9.54 -75.59,-19.23 -26.22,-10.97 -53.48,-25.32 -81.01,-41.98 z M 616.313,1615.3 c -24.637,4.89 -49.325,9.43 -73.719,13.63 -24.41,3.86 -48.594,7.96 -72.391,12.16 -31.172,5.22 -60.832,11.72 -90.324,17.8 -29.43,5.88 -58.348,12.29 -87.613,17.69 -25.942,5.92 -54.578,11.65 -82.286,15.44 -28.007,4.24 -55.296,5.87 -76.992,1.68 -20.726,-4.21 -33.5935,-15.79 -33.3357,-36.31 2.8207,-21.33 17.3357,-50.39 42.1177,-88.55 15.668,-33.12 32.484,-58.28 50.695,-75.54 18.363,-13.06 45.25,-15.37 78.281,-12.33 34.508,1.8 72.484,2.75 110.016,2.68 40.508,-0.62 78.16,-0.62 104.551,-0.68 28.046,1.56 62.246,4.03 97.292,7.9 35.071,6.79 70.086,10.47 98.196,11.84 23.965,0.56 39.105,7.39 48.23,17.97 8.574,11.07 11.684,26.51 12.707,39.18 l -4.906,33.62 c -17.144,2.49 -35.113,5.42 -54.117,8.78 -20.231,4.16 -42.422,8.6 -66.402,13.04 z m 68.746,-462.91 c 12.312,10.63 25.046,20.6 37.89,29.77 0,0 12.633,12.49 23.18,25 10.398,12.49 20.309,25 20.309,25 -8.442,14.58 -8.645,30.4 -17.422,39.3 -5.348,4.59 -13.254,7.22 -26.922,6.78 -14.156,-0.41 -33.813,-3.97 -61.813,-11.69 -23.355,-4.87 -48.355,-11.3 -74.218,-18.58 -27.184,-7.37 -54.989,-15.63 -83.875,-24.25 -29.954,-8.56 -61.098,-17.34 -93.379,-25.78 -32.282,-8.47 -64.555,-16.51 -94.336,-22.92 -29.91,-5.99 -65.18,-14.34 -99.477,-24.37 -22.637,-7.34 -44.484,-15.18 -64.211,-23.19 -25.234,-10.55 -45.765,-22.88 -59.6717,-38.58 -10.5508,-15.41 -15.7539,-33.91 -13.1016,-55.37 3.9571,-32.26 13.4297,-64.194 24.1403,-93.6 10.243,-29.781 21.27,-57.371 31.485,-81.094 10.301,-23.875 21.484,-43.789 32.093,-57.781 11.973,-13.711 24.188,-21.25 33.493,-20.41 17.324,1.57 37.773,14.453 68.312,36.328 20.324,13.75 45.617,30.774 77.406,51.184 32.106,22.129 68.782,48.504 106.637,75.906 46.235,35.254 84.551,66.767 115.996,92.957 32.004,28.81 57.446,56.16 81.508,81.64 11.785,11.84 23.652,23.09 35.977,33.75 z M 1019.09,981.348 c -13.45,12.351 -27.563,20.492 -39.281,16.035 -14.438,-5.867 -37.121,-27.559 -67.407,-57.442 C 895,920.918 876.934,900.813 860.23,882.168 c -16.746,-18.605 -32.281,-35.574 -44.406,-48.23 -18.652,-20.403 -42.98,-46.829 -66.5,-74.465 -24.496,-25.91 -51.824,-53.184 -74.851,-80.625 -22.848,-27.254 -39.477,-56.438 -44.024,-84.785 -3.07,-29.805 5.406,-57.747 30.735,-79.715 20.765,-17.832 47.593,-28.227 72.82,-36.282 23.215,-9.179 46.266,-16.191 64.883,-22.031 29.367,-9.597 41.301,-7.754 48.156,0.938 8.062,9.812 12.234,28.371 26.504,53.066 9.465,20.027 20.625,42.805 32.59,66.25 13.504,27.461 27.515,53.508 40.789,79.16 23.422,46.836 43.012,86.614 56.704,124.942 10.4,27.019 18.37,55.371 27.28,81.433 8.24,23.93 16.47,44.184 29.89,59.067 l -3.37,19.609 c -6.57,11.883 -22,28.008 -38.34,40.848 z m 372.65,-188.035 -10.96,57 c -12.63,9.472 -26.88,23.125 -40.58,28.378 -12.61,4.825 -24.69,1.692 -36.5,-21.628 -11.01,-22.434 -24.54,-64.27 -41.54,-111 -22.24,-51.063 -45.6,-107.86 -62.48,-145.372 -21.16,-52.996 -40.31,-104.121 -57.01,-154.57 -13.67,-49.141 -24.61,-96.695 -32.11,-142.012 -9.04,-54.546 -37.75,-117.476 -21.65,-170.418 18.41,-60.4879 75.33,-65.5152 139.32,-74.0504 86.83,-8.5351 112.05,10.6524 135.52,88.6724 15.14,50.222 25.98,105.75 33.67,166.687 7.66,60.891 12.15,127.195 14.52,193.977 1.15,44.586 -0.71,87.808 -5.63,128.503 -9.83,56.458 -9.95,105.469 -14.57,155.833 z m 823.73,-639.641 c -6.43,13.406 -14.26,27.219 -22.81,41.199 -8.64,14.375 -18.38,28.93 -28.49,43.723 -11.54,16.941 -23.61,34.187 -35.88,51.574 -10.16,14.5 -20.66,29.187 -31.41,43.992 -10.69,14.793 -21.53,29.617 -32.45,44.168 -10.86,14.485 -21.9,28.559 -32.91,42.309 -16.41,20.332 -32.66,40.125 -48.71,59.441 -15.65,18.86 -30.71,37.578 -44.46,56.309 -13.19,17.929 -25.31,35.871 -37.04,53.484 -12.92,20.324 -29.65,41.887 -47.45,64.609 -8.75,11.379 -18.01,23.059 -27.24,35.083 -9.14,11.953 -18.23,24.187 -26.71,36.609 -17.07,24.863 -31.49,50.469 -39.62,76.594 l -48.98,58.484 c -17.09,23.313 -38.93,31.105 -55.74,26.094 -16.61,-4.961 -27.29,-22.461 -23.9,-48.614 1.96,-14.484 6.61,-31.757 12.28,-50.578 5.61,-18.867 11.97,-39.175 18.86,-59.832 6.48,-21.054 13.25,-43 18.79,-64.504 5.57,-21.492 10.18,-42.175 12.96,-60.086 3.42,-20.878 7.13,-41.574 11.08,-62.031 4.05,-20.383 8.27,-40.422 12.84,-59.726 4.52,-19.336 9.44,-37.801 14.49,-55.555 4.94,-17.324 9.84,-33.945 14.56,-50.039 4.57,-15.676 8.93,-30.859 13.04,-45.805 3.82,-14.683 7.71,-29.168 11.68,-43.496 3,-10.879 6.16,-22.937 9.44,-35.75 3.26,-12.781 6.82,-26.316 10.48,-40.234 3.64,-13.938 7.47,-28.36 11.72,-42.766 5.99,-22.105 12.99,-44.473 21.92,-65.379 8.69,-21.3865 19.53,-40.5662 32.14,-55.6638 13.83,-16.5039 30.08,-27.7422 47.99,-35.2149 13.45,-5.62499 27.88,-9.08983 42.84,-10.91014 22.53,-2.39844 46.38,-0.867191 70.22,2.5625 23.5,3.875 47.13,9.16014 68.98,13.50394 18.59,3.6797 35.81,6.3476 51.31,8.9336 23.32,3.8203 42.98,7.6562 58.56,15.0625 15.11,7.0078 25.76,17.7539 30.92,35.7187 3.21,12.5117 3.11,25.0386 0.58,37.6876 -2.46,12.715 -7.39,25.652 -13.88,39.043 z m 421.38,583.359 c -17.23,14.09 -38.6,27.949 -61.36,41.282 -22.76,13.042 -46.72,24.667 -69.06,34.375 -22.34,8.542 -42.91,15.593 -58.83,21.558 -22.62,7.91 -45.64,14.887 -68.2,21.391 -22.86,6.629 -45.52,12.801 -67.94,19.218 -22.55,6.395 -44.88,13.563 -66.56,21.942 -21.57,8.301 -42.32,17.766 -61.8,28.113 0,0 -45.16,15.434 -86.81,33.469 -37.12,18.594 -71.08,38.684 -71.08,38.684 -20.96,9.047 -36.4,12.627 -47.26,11.607 -10.94,-1.03 -17.29,-6.61 -19.88,-14.998 -2.54,-8.543 -1.28,-19.817 2.81,-32.695 4.15,-12.84 11.18,-27.247 20.34,-42.129 9.2,-14.871 20.53,-30.34 32.95,-45.332 12.55,-15.078 26.34,-29.661 40.42,-42.325 18.2,-16.503 37.72,-30.273 57.94,-43.808 20.97,-13.223 42.56,-26.653 64.16,-43.535 16.02,-12.371 31.9,-25.34 47.67,-38.711 23.58,-20.215 46.17,-41.192 67.76,-61.914 21.44,-20.782 41.82,-41.192 62.5,-60.254 11.08,-10.391 22.07,-21.223 32.98,-31.864 16.28,-15.976 32.57,-31.632 49.46,-44.933 16.77,-13.223 34.53,-24.141 54.21,-30.879 23.01,-7.883 46.79,-10.75 69.53,-5.84 23.03,4.988 44.63,17.578 62.51,40.586 6.69,8.594 14.55,21.691 22.43,37.09 7.74,15.449 15.28,33.281 21.29,51.387 6.02,18.156 10.37,36.64 12.03,53.214 1.3,16.739 -0.08,31.524 -4.98,42.149 -6.77,14.629 -19.96,29.043 -37.23,43.152 z m 551.9,1017.909 c -11.41,47.68 -39.43,73.71 -76.17,87.51 -36.72,13.8 -82.12,15.36 -128.15,14.28 -34.32,-0.95 -68.37,-1.85 -101.87,-3.69 -33.2,-1.95 -66.13,-4.85 -98.85,-8.55 -32.58,-4.43 -64.69,-10.54 -96.52,-18.47 -32.19,-7.45 -64.42,-15.71 -97,-23.91 -37.92,-9.26 -80.81,-17.45 -124.96,-23.53 -44.08,-6.08 -88.75,-10.63 -128.56,-16.6 -24.88,-3.8 -64.57,-9.73 -101.51,-17.77 -36.89,-7.99 -71.12,-17.55 -85.56,-27.53 -19.16,-13.79 -21.35,-32.69 -11.99,-49.7 9.4,-17.05 30.18,-33.71 56.75,-44.98 l 126.06,-17.84 c 34.97,-10.34 69.46,-21.46 103.85,-32.19 34.39,-9.81 68.69,-17.25 103.13,-21.53 34.59,-1.35 69.15,-2.04 103.77,-2.82 34.66,-0.84 69.47,-1.79 104.51,-2.73 121.01,-3.23 250.71,-47.33 373.54,-16.68 101.74,25.34 100.3,139.84 79.53,226.73 z m -407.22,-492.55 c -42.69,18.08 -94.68,30.89 -139.63,40.71 -18.07,3.76 -35.04,7.1 -49.88,10.18 -20.69,4.35 -43.56,7.37 -67.37,10.12 -24.04,2.56 -48.94,4.85 -73.49,7.58 -24.32,2.66 -47.94,5.68 -69.7,9.82 -21.71,4.1 -41.73,9.48 -59.19,16.75 0,0 -32.47,1.84 -64.37,4.58 -31.52,3.55 -62.86,8.12 -62.86,8.12 -29.77,7.25 -51.23,5.16 -63.32,-5.76 -12.56,-11.72 -15.97,-32.6 -9.02,-60.5 3.18,-13.52 11.4,-24.93 22.87,-34.74 17.16,-14.78 41.63,-26.01 67.24,-36.03 25.63,-10.04 52.47,-18.98 74.53,-29.28 20.19,-9.45 40.84,-19.19 61.83,-28.97 17.48,-8.19 35.19,-16.28 52.93,-24.38 88.88,-40.28 180.9,-78.09 273.96,-103.17 51.63,-13.88 86.83,-32.32 133.9,-5.54 46.84,26.52 62.66,97.04 54.63,142.64 -6.96,34.8 -40.44,58.94 -83.06,77.87"
         style="fill:#fbc607;fill-opacity:1;fill-rule:nonzero;stroke:none"
         id="path14" /></g></g></svg>
